<svg width="251" height="84" viewBox="0 0 251 84" fill="none" xmlns="http://www.w3.org/2000/svg">
<g clip-path="url(#clip0_348_768)">
<path d="M250.951 0H0V84H250.951V0Z" fill="#CB0003"/>
<path d="M11.8203 12.4551C11.8203 11.9113 12.1699 11.5488 12.7007 11.5488H40.7309C41.2617 11.5488 41.6113 11.9113 41.6113 12.4551V23.46C41.6113 24.0038 41.2617 24.3663 40.7309 24.3663H26.3727C26.0231 24.3663 25.8419 24.5476 25.8419 24.9101V35.0088C25.8419 35.3713 26.0231 35.5525 26.3727 35.5525H38.7112C39.242 35.5525 39.5916 35.915 39.5916 36.4588V47.4638C39.5916 48.0075 39.242 48.37 38.7112 48.37H26.3727C26.0231 48.37 25.8419 48.5513 25.8419 48.9138V59.5562C25.8419 59.9187 26.0231 60.1 26.3727 60.1H40.7309C41.2617 60.1 41.6113 60.4625 41.6113 61.0063V72.0112C41.6113 72.555 41.2617 72.9175 40.7309 72.9175H12.7007C12.1699 72.9175 11.8203 72.555 11.8203 72.0112V12.4551Z" fill="white"/>
<path d="M46.2852 12.4551C46.2852 11.9113 46.6347 11.5488 47.1655 11.5488H58.8826C59.5817 11.5488 60.0348 11.9113 60.2032 12.4551L68.3986 42.2202H68.7482L76.6847 12.4551C76.8659 11.9113 77.3061 11.5488 78.0053 11.5488H89.6446C90.1754 11.5488 90.525 11.9113 90.525 12.4551V71.9853C90.525 72.5291 90.1754 72.8916 89.6446 72.8916H79.0669C78.5361 72.8916 78.1865 72.5291 78.1865 71.9853V40.33H77.7463L72.464 61.071C72.2827 61.7054 71.9331 61.9773 71.4023 61.9773H65.4078C64.877 61.9773 64.5275 61.7054 64.3462 61.071L59.0638 40.33H58.6236V71.9853C58.6236 72.5291 58.2741 72.8916 57.7432 72.8916H47.1655C46.6347 72.8916 46.2852 72.5291 46.2852 71.9853V12.4551Z" fill="white"/>
<path d="M96.1562 12.4551C96.1562 11.9113 96.5058 11.5488 97.0366 11.5488H125.067C125.598 11.5488 125.947 11.9113 125.947 12.4551V23.46C125.947 24.0038 125.598 24.3663 125.067 24.3663H110.709C110.359 24.3663 110.178 24.5476 110.178 24.9101V35.0088C110.178 35.3713 110.359 35.5525 110.709 35.5525H123.047C123.578 35.5525 123.928 35.915 123.928 36.4588V47.4638C123.928 48.0075 123.578 48.37 123.047 48.37H110.709C110.359 48.37 110.178 48.5513 110.178 48.9138V59.5562C110.178 59.9187 110.359 60.1 110.709 60.1H125.067C125.598 60.1 125.947 60.4625 125.947 61.0063V72.0112C125.947 72.555 125.598 72.9175 125.067 72.9175H97.0366C96.5058 72.9175 96.1562 72.555 96.1562 72.0112V12.4551Z" fill="white"/>
<path d="M152.296 30.9434C152.296 25.3503 150.716 23.6413 147.182 23.6413H145.162C144.812 23.6413 144.631 23.8226 144.631 24.1851V37.624C144.631 37.9866 144.812 38.1678 145.162 38.1678H147.182C150.716 38.1549 152.296 36.4459 152.296 30.9434ZM154.406 72.8787C153.784 72.8787 153.435 72.6068 153.254 72.063L147.169 49.9625H145.149C144.799 49.9625 144.618 50.1438 144.618 50.5063V71.9724C144.618 72.5162 144.268 72.8787 143.738 72.8787H131.49C130.959 72.8787 130.609 72.5162 130.609 71.9724V12.4551C130.609 11.9113 130.959 11.5488 131.49 11.5488H148.321C159.067 11.5488 166.304 17.1419 166.304 30.9434C166.304 38.4268 163.922 43.3854 160.051 46.4539L167.897 71.9724C168.078 72.4255 167.897 72.8787 167.456 72.8787H154.406Z" fill="white"/>
<path d="M170.445 42.22C170.445 27.6158 170.886 24.5474 171.766 21.7508C174.148 14.3581 179.431 10.6553 188.066 10.6553C198.993 10.6553 204.807 16.8828 205.337 27.072C205.337 27.7064 205.156 28.056 204.638 28.1466L192.831 30.1275C192.3 30.2182 191.86 29.9463 191.86 29.3119C191.769 25.0782 190.63 23.4469 188.247 23.4469C186.746 23.4469 185.775 24.0813 185.257 25.609C184.907 26.8649 184.816 27.7712 184.816 42.2071C184.816 56.6429 184.907 57.5363 185.257 58.8051C185.787 60.3328 186.759 60.9672 188.247 60.9672C190.63 60.9672 191.769 59.3489 191.86 55.1023C191.86 54.4679 192.3 54.196 192.831 54.2866L204.638 56.2675C205.169 56.3581 205.337 56.7206 205.337 57.355C204.807 67.5443 198.993 73.7718 188.066 73.7718C179.431 73.7718 174.148 70.069 171.766 62.6762C170.886 59.8926 170.445 56.8242 170.445 42.22Z" fill="white"/>
<path d="M209.312 12.4551C209.312 11.9113 209.662 11.5488 210.193 11.5488H238.223C238.754 11.5488 239.104 11.9113 239.104 12.4551V23.46C239.104 24.0038 238.754 24.3663 238.223 24.3663H223.865C223.515 24.3663 223.334 24.5476 223.334 24.9101V35.0088C223.334 35.3713 223.515 35.5525 223.865 35.5525H236.203C236.734 35.5525 237.084 35.915 237.084 36.4588V47.4638C237.084 48.0075 236.734 48.37 236.203 48.37H223.865C223.515 48.37 223.334 48.5513 223.334 48.9138V59.5562C223.334 59.9187 223.515 60.1 223.865 60.1H238.223C238.754 60.1 239.104 60.4625 239.104 61.0063V72.0112C239.104 72.555 238.754 72.9175 238.223 72.9175H210.193C209.662 72.9175 209.312 72.555 209.312 72.0112V12.4551Z" fill="white"/>
</g>
<defs>
<clipPath id="clip0_348_768">
<rect width="250.951" height="84" fill="white"/>
</clipPath>
</defs>
</svg>
