<svg width="350" height="146" viewBox="0 0 350 146" fill="none" xmlns="http://www.w3.org/2000/svg">
<path d="M157.886 98.4518C155.995 98.4518 154.339 98.1145 152.918 97.4401C151.497 96.7656 150.371 95.8502 149.539 94.694C148.708 93.5377 148.239 92.2369 148.13 90.7916L148.112 90.5206H153.153L153.189 90.6471C153.321 91.2975 153.598 91.8876 154.02 92.4176C154.454 92.9475 155.002 93.3691 155.664 93.6822C156.326 93.9834 157.073 94.1339 157.904 94.1339C158.856 94.1339 159.693 93.9352 160.415 93.5377C161.15 93.1282 161.722 92.5681 162.132 91.8575C162.553 91.1469 162.764 90.3279 162.764 89.4005V89.3644C162.764 88.449 162.553 87.642 162.132 86.9435C161.722 86.2329 161.15 85.6788 160.415 85.2814C159.693 84.8839 158.862 84.6852 157.922 84.6852C157.26 84.6852 156.646 84.7815 156.079 84.9742C155.513 85.1549 155.008 85.4259 154.562 85.7872C154.309 85.992 154.074 86.2148 153.857 86.4557C153.641 86.6966 153.46 86.9555 153.315 87.2325H148.564L149.756 71.9303H166.395V76.2662H154.092L153.46 83.6012H153.568C153.93 83.011 154.399 82.5112 154.977 82.1017C155.568 81.6801 156.236 81.3549 156.983 81.1261C157.742 80.8972 158.561 80.7828 159.44 80.7828C161.102 80.7828 162.571 81.1502 163.848 81.8849C165.125 82.6075 166.13 83.6072 166.865 84.8839C167.6 86.1606 167.967 87.618 167.967 89.256V89.2921C167.967 91.1108 167.54 92.7067 166.684 94.0797C165.841 95.4528 164.661 96.5247 163.143 97.2955C161.626 98.0664 159.873 98.4518 157.886 98.4518Z" fill="white"/>
<path d="M181.119 71.9303L174.597 104.323H169.9L176.44 71.9303H181.119Z" fill="white"/>
<path d="M193.692 98.4518C191.801 98.4518 190.145 98.1145 188.724 97.4401C187.303 96.7656 186.177 95.8502 185.346 94.694C184.515 93.5377 184.045 92.2369 183.936 90.7916L183.918 90.5206H188.959L188.995 90.6471C189.128 91.2975 189.405 91.8876 189.826 92.4176C190.26 92.9475 190.808 93.3691 191.47 93.6822C192.133 93.9834 192.879 94.1339 193.71 94.1339C194.662 94.1339 195.499 93.9352 196.222 93.5377C196.956 93.1282 197.528 92.5681 197.938 91.8575C198.359 91.1469 198.57 90.3279 198.57 89.4005V89.3644C198.57 88.449 198.359 87.642 197.938 86.9435C197.528 86.2329 196.956 85.6788 196.222 85.2814C195.499 84.8839 194.668 84.6852 193.728 84.6852C193.066 84.6852 192.452 84.7815 191.886 84.9742C191.32 85.1549 190.814 85.4259 190.368 85.7872C190.115 85.992 189.88 86.2148 189.663 86.4557C189.447 86.6966 189.266 86.9555 189.122 87.2325H184.37L185.562 71.9303H202.202V76.2662H189.898L189.266 83.6012H189.374C189.736 83.011 190.205 82.5112 190.784 82.1017C191.374 81.6801 192.042 81.3549 192.789 81.1261C193.548 80.8972 194.367 80.7828 195.246 80.7828C196.908 80.7828 198.378 81.1502 199.654 81.8849C200.931 82.6075 201.937 83.6072 202.671 84.8839C203.406 86.1606 203.773 87.618 203.773 89.256V89.2921C203.773 91.1108 203.346 92.7067 202.491 94.0797C201.648 95.4528 200.467 96.5247 198.95 97.2955C197.432 98.0664 195.68 98.4518 193.692 98.4518Z" fill="white"/>
<path d="M59.0539 112.389C62.5552 114.731 64.9348 118.649 65.1373 123.18C65.3398 127.711 63.3177 131.825 60.0385 134.47C56.5381 132.128 54.1595 128.21 53.9571 123.68C53.7547 119.149 55.7751 115.034 59.0539 112.389Z" fill="white" fill-opacity="0.5"/>
<path d="M47.6774 101.033C50.3275 104.308 51.4398 108.756 50.2899 113.143C49.1399 117.531 45.9892 120.862 42.0737 122.416C39.4234 119.141 38.3114 114.693 39.4614 110.305C40.6114 105.918 43.7621 102.587 47.6774 101.033Z" fill="white" fill-opacity="0.5"/>
<path d="M39.8679 88.4299C41.3458 92.3743 40.9934 96.9451 38.5154 100.743C36.0372 104.542 31.995 106.705 27.7892 106.941C26.3115 102.997 26.6631 98.4268 29.1412 94.6285C31.6196 90.8297 35.6617 88.6658 39.8679 88.4299Z" fill="white" fill-opacity="0.5"/>
<path d="M40.9636 72.8432C41.0787 77.0547 39.2588 81.2629 35.679 84.049C32.0996 86.8347 27.5739 87.5651 23.52 86.4199C23.4055 82.2089 25.2264 78.0013 28.8058 75.2157C32.3848 72.4304 36.91 71.6985 40.9636 72.8432Z" fill="white" fill-opacity="0.5"/>
<path d="M44.5988 55.8163C43.6162 59.9126 40.7664 63.5031 36.5868 65.2641C32.4066 67.0253 27.8466 66.5554 24.2287 64.3967C25.2117 60.3011 28.0611 56.711 32.2402 54.9502C36.4202 53.1891 40.981 53.6578 44.5988 55.8163Z" fill="white" fill-opacity="0.5"/>
<path d="M54.4376 42.2911C52.7182 46.1371 49.2558 49.1424 44.8231 50.1044C40.3903 51.0663 35.9945 49.7652 32.8356 46.9777C34.5553 43.1329 38.0169 40.1286 42.4486 39.1668C46.8812 38.2049 51.2787 39.5039 54.4376 42.2911Z" fill="white" fill-opacity="0.5"/>
<path d="M55.3804 16.8095C56.1685 20.9483 55.0462 25.3936 51.9588 28.717C48.8717 32.04 44.5216 33.4859 40.3365 33.0048C39.549 28.8665 40.6712 24.4216 43.7581 21.0986C46.845 17.7758 51.1955 16.3286 55.3804 16.8095Z" fill="white" fill-opacity="0.5"/>
<path d="M16.7412 116.882C20.262 114.569 24.7975 113.903 29.0498 115.481C33.3027 117.059 36.3051 120.524 37.4638 124.575C33.9433 126.888 29.4076 127.553 25.156 125.975C20.9037 124.397 17.9003 120.932 16.7412 116.882Z" fill="white" fill-opacity="0.5"/>
<path d="M5.50887 93.6857C9.57981 92.6055 14.0926 93.4078 17.627 96.2491C21.1626 99.0913 22.9151 103.328 22.7336 107.538C18.663 108.617 14.1507 107.815 10.6168 104.974C7.08136 102.132 5.32739 97.8949 5.50887 93.6857Z" fill="white" fill-opacity="0.5"/>
<path d="M6.7741 66.637C10.9763 66.939 14.9842 69.1659 17.4025 73.0035C19.8208 76.841 20.0995 81.417 18.5589 85.338C14.3573 85.0355 10.3502 82.8076 7.93213 78.9704C5.51426 75.1333 5.23394 70.5577 6.7741 66.637Z" fill="white" fill-opacity="0.5"/>
<path d="M34.2073 136.701C36.884 133.446 41.0197 131.465 45.55 131.711C50.0778 131.958 53.9714 134.375 56.2794 137.897C53.6028 141.151 49.4684 143.133 44.9387 142.887C40.4107 142.641 36.5153 140.224 34.2073 136.701Z" fill="white" fill-opacity="0.5"/>
<path d="M26.2952 21.8921C29.953 23.9832 32.6027 27.726 33.1217 32.2327C33.6406 36.7391 31.911 40.9856 28.8244 43.8534C25.1671 41.7622 22.519 38.0197 21.9999 33.5135C21.481 29.0072 23.2089 24.7599 26.2952 21.8921Z" fill="white" fill-opacity="0.5"/>
<path d="M13.1792 40.9442C17.1582 42.3269 20.4494 45.5178 21.7885 49.851C23.1277 54.1845 22.2099 58.6759 19.7045 62.0625C15.7262 60.6795 12.4354 57.489 11.0964 53.1563C9.75722 48.823 10.674 44.3308 13.1792 40.9442Z" fill="white" fill-opacity="0.5"/>
<path d="M290.491 112.389C286.99 114.731 284.61 118.649 284.408 123.18C284.205 127.711 286.227 131.825 289.506 134.47C293.007 132.128 295.385 128.21 295.588 123.68C295.79 119.149 293.77 115.034 290.491 112.389Z" fill="white" fill-opacity="0.5"/>
<path d="M301.871 101.033C299.221 104.308 298.109 108.756 299.259 113.143C300.409 117.531 303.559 120.862 307.475 122.416C310.125 119.141 311.237 114.693 310.087 110.305C308.937 105.918 305.787 102.587 301.871 101.033Z" fill="white" fill-opacity="0.5"/>
<path d="M309.681 88.4311C308.204 92.3753 308.556 96.9454 311.034 100.743C313.512 104.542 317.554 106.705 321.761 106.941C323.237 102.997 322.885 98.4273 320.408 94.6297C317.929 90.831 313.887 88.6671 309.681 88.4311Z" fill="white" fill-opacity="0.5"/>
<path d="M308.581 72.8432C308.466 77.0547 310.286 81.2629 313.866 84.049C317.445 86.8347 321.971 87.5651 326.025 86.4199C326.139 82.2089 324.318 78.0013 320.739 75.2157C317.16 72.4304 312.635 71.6985 308.581 72.8432Z" fill="white" fill-opacity="0.5"/>
<path d="M304.954 55.8163C305.936 59.9126 308.786 63.5031 312.966 65.2641C317.146 67.0253 321.706 66.5554 325.324 64.3967C324.341 60.3011 321.492 56.711 317.312 54.9502C313.132 53.1891 308.572 53.6578 304.954 55.8163Z" fill="white" fill-opacity="0.5"/>
<path d="M295.111 42.2911C296.831 46.1371 300.293 49.1424 304.726 50.1044C309.158 51.0663 313.554 49.7652 316.713 46.9777C314.993 43.1329 311.532 40.1286 307.1 39.1668C302.667 38.2049 298.27 39.5039 295.111 42.2911Z" fill="white" fill-opacity="0.5"/>
<path d="M294.164 16.8095C293.376 20.9483 294.499 25.3936 297.586 28.717C300.673 32.04 305.023 33.4859 309.208 33.0048C309.996 28.8665 308.874 24.4216 305.787 21.0986C302.7 17.7758 298.349 16.3286 294.164 16.8095Z" fill="white" fill-opacity="0.5"/>
<path d="M332.807 116.882C329.287 114.569 324.751 113.903 320.499 115.481C316.246 117.059 313.244 120.524 312.085 124.575C315.605 126.888 320.141 127.553 324.393 125.975C328.645 124.397 331.648 120.932 332.807 116.882Z" fill="white" fill-opacity="0.5"/>
<path d="M344.04 93.6859C339.969 92.6056 335.456 93.4079 331.922 96.2493C328.386 99.0916 326.634 103.328 326.815 107.538C330.886 108.617 335.397 107.814 338.931 104.974C342.467 102.131 344.221 97.8951 344.04 93.6859Z" fill="white" fill-opacity="0.5"/>
<path d="M342.779 66.637C338.576 66.939 334.568 69.1659 332.15 73.0035C329.732 76.841 329.453 81.417 330.994 85.338C335.195 85.0355 339.202 82.8076 341.621 78.9704C344.038 75.1333 344.319 70.5577 342.779 66.637Z" fill="white" fill-opacity="0.5"/>
<path d="M315.341 136.701C312.665 133.446 308.529 131.465 303.999 131.711C299.471 131.958 295.577 134.375 293.269 137.897C295.946 141.151 300.08 143.133 304.61 142.887C309.138 142.641 313.033 140.224 315.341 136.701Z" fill="white" fill-opacity="0.5"/>
<path d="M323.254 21.8921C319.596 23.9832 316.946 27.726 316.427 32.2327C315.908 36.7391 317.638 40.9856 320.724 43.8534C324.382 41.7622 327.03 38.0197 327.549 33.5135C328.068 29.0072 326.34 24.7599 323.254 21.8921Z" fill="white" fill-opacity="0.5"/>
<path d="M336.37 40.9442C332.391 42.3269 329.099 45.5178 327.76 49.851C326.421 54.1845 327.339 58.6759 329.844 62.0625C333.823 60.6795 337.113 57.489 338.452 53.1563C339.792 48.823 338.875 44.3308 336.37 40.9442Z" fill="white" fill-opacity="0.5"/>
<path d="M132.705 133L138.354 116.795H141.307V119.973H140.296L136.265 133H132.705ZM135.737 129.07L136.568 126.531H144.104L144.935 129.07H135.737ZM144.418 133L140.409 119.973V116.795H142.34L147.989 133H144.418Z" fill="white" fill-opacity="0.5"/>
<path d="M150.168 136.987V120.86H153.447V122.893H153.559C153.776 122.421 154.061 122.017 154.413 121.68C154.772 121.343 155.191 121.085 155.671 120.905C156.15 120.718 156.674 120.624 157.243 120.624C158.268 120.624 159.148 120.875 159.882 121.377C160.623 121.878 161.192 122.601 161.589 123.544C161.993 124.488 162.195 125.614 162.195 126.925V126.936C162.195 128.246 161.997 129.373 161.6 130.316C161.203 131.252 160.638 131.974 159.904 132.484C159.171 132.985 158.295 133.236 157.276 133.236C156.707 133.236 156.18 133.146 155.693 132.967C155.206 132.779 154.783 132.517 154.424 132.18C154.065 131.843 153.776 131.443 153.559 130.979H153.447V136.987H150.168ZM156.153 130.518C156.707 130.518 157.187 130.372 157.591 130.08C157.995 129.788 158.306 129.377 158.523 128.845C158.748 128.306 158.86 127.669 158.86 126.936V126.925C158.86 126.176 158.748 125.536 158.523 125.004C158.306 124.465 157.995 124.053 157.591 123.769C157.187 123.484 156.707 123.342 156.153 123.342C155.607 123.342 155.128 123.488 154.716 123.78C154.304 124.065 153.986 124.476 153.761 125.015C153.537 125.547 153.424 126.183 153.424 126.925V126.936C153.424 127.669 153.537 128.306 153.761 128.845C153.993 129.377 154.312 129.788 154.716 130.08C155.128 130.372 155.607 130.518 156.153 130.518Z" fill="white" fill-opacity="0.5"/>
<path d="M164.688 136.987V120.86H167.967V122.893H168.08C168.297 122.421 168.581 122.017 168.933 121.68C169.293 121.343 169.712 121.085 170.191 120.905C170.67 120.718 171.194 120.624 171.763 120.624C172.789 120.624 173.669 120.875 174.402 121.377C175.144 121.878 175.713 122.601 176.11 123.544C176.514 124.488 176.716 125.614 176.716 126.925V126.936C176.716 128.246 176.518 129.373 176.121 130.316C175.724 131.252 175.159 131.974 174.425 132.484C173.691 132.985 172.815 133.236 171.797 133.236C171.228 133.236 170.7 133.146 170.214 132.967C169.727 132.779 169.304 132.517 168.944 132.18C168.585 131.843 168.297 131.443 168.08 130.979H167.967V136.987H164.688ZM170.674 130.518C171.228 130.518 171.707 130.372 172.111 130.08C172.516 129.788 172.826 129.377 173.044 128.845C173.268 128.306 173.381 127.669 173.381 126.936V126.925C173.381 126.176 173.268 125.536 173.044 125.004C172.826 124.465 172.516 124.053 172.111 123.769C171.707 123.484 171.228 123.342 170.674 123.342C170.127 123.342 169.648 123.488 169.236 123.78C168.825 124.065 168.506 124.476 168.282 125.015C168.057 125.547 167.945 126.183 167.945 126.925V126.936C167.945 127.669 168.057 128.306 168.282 128.845C168.514 129.377 168.832 129.788 169.236 130.08C169.648 130.372 170.127 130.518 170.674 130.518Z" fill="white" fill-opacity="0.5"/>
<path d="M190.843 133.326C189.563 133.326 188.443 133.135 187.485 132.753C186.534 132.371 185.786 131.829 185.239 131.125C184.692 130.413 184.389 129.567 184.329 128.587L184.318 128.407H187.541L187.552 128.53C187.62 128.942 187.803 129.302 188.103 129.609C188.402 129.908 188.792 130.144 189.271 130.316C189.757 130.481 190.311 130.563 190.933 130.563C191.554 130.563 192.093 130.477 192.55 130.305C193.007 130.133 193.359 129.889 193.606 129.575C193.86 129.26 193.988 128.897 193.988 128.486V128.474C193.988 127.935 193.77 127.509 193.336 127.194C192.909 126.88 192.191 126.618 191.18 126.408L189.473 126.071C187.848 125.742 186.639 125.191 185.845 124.42C185.052 123.649 184.655 122.649 184.655 121.422V121.41C184.655 120.422 184.921 119.557 185.452 118.816C185.984 118.075 186.714 117.498 187.642 117.087C188.571 116.675 189.634 116.469 190.832 116.469C192.082 116.469 193.16 116.667 194.066 117.064C194.98 117.461 195.691 118.015 196.2 118.726C196.709 119.438 196.994 120.257 197.053 121.186L197.065 121.377H193.864L193.842 121.242C193.782 120.823 193.621 120.467 193.359 120.175C193.097 119.876 192.748 119.643 192.314 119.479C191.887 119.307 191.393 119.224 190.832 119.232C190.263 119.232 189.769 119.314 189.349 119.479C188.93 119.643 188.608 119.872 188.384 120.164C188.159 120.456 188.047 120.8 188.047 121.197V121.208C188.047 121.725 188.26 122.144 188.687 122.466C189.121 122.78 189.806 123.035 190.742 123.23L192.46 123.578C193.598 123.802 194.527 124.113 195.245 124.51C195.972 124.907 196.507 125.408 196.851 126.015C197.203 126.614 197.379 127.336 197.379 128.182V128.194C197.379 129.242 197.117 130.151 196.593 130.923C196.069 131.686 195.32 132.278 194.347 132.697C193.374 133.116 192.206 133.326 190.843 133.326Z" fill="white" fill-opacity="0.5"/>
<path d="M204.881 133.18C203.488 133.18 202.466 132.907 201.815 132.36C201.171 131.814 200.849 130.908 200.849 129.642V123.331H199.097V120.86H200.849V117.918H204.162V120.86H206.475V123.331H204.162V129.159C204.162 129.721 204.285 130.118 204.532 130.35C204.787 130.574 205.173 130.687 205.689 130.687C205.854 130.687 205.996 130.683 206.116 130.676C206.243 130.668 206.363 130.657 206.475 130.642V133.056C206.288 133.086 206.056 133.113 205.779 133.135C205.51 133.165 205.21 133.18 204.881 133.18Z" fill="white" fill-opacity="0.5"/>
<path d="M214.415 133.247C213.187 133.247 212.12 132.996 211.214 132.495C210.316 131.993 209.623 131.271 209.137 130.327C208.65 129.377 208.407 128.246 208.407 126.936V126.913C208.407 125.603 208.654 124.476 209.148 123.533C209.642 122.59 210.338 121.867 211.237 121.365C212.135 120.856 213.194 120.602 214.415 120.602C215.635 120.602 216.695 120.856 217.593 121.365C218.492 121.867 219.188 122.59 219.682 123.533C220.176 124.469 220.423 125.596 220.423 126.913V126.936C220.423 128.253 220.18 129.384 219.693 130.327C219.207 131.271 218.514 131.993 217.616 132.495C216.717 132.996 215.65 133.247 214.415 133.247ZM214.426 130.676C214.98 130.676 215.452 130.53 215.841 130.238C216.238 129.946 216.541 129.523 216.751 128.968C216.968 128.407 217.076 127.729 217.076 126.936V126.913C217.076 126.127 216.968 125.457 216.751 124.903C216.534 124.342 216.227 123.915 215.83 123.623C215.433 123.323 214.961 123.174 214.415 123.174C213.876 123.174 213.404 123.323 213 123.623C212.603 123.915 212.296 124.342 212.079 124.903C211.862 125.457 211.753 126.127 211.753 126.913V126.936C211.753 127.729 211.858 128.407 212.068 128.968C212.285 129.523 212.592 129.946 212.989 130.238C213.393 130.53 213.872 130.676 214.426 130.676Z" fill="white" fill-opacity="0.5"/>
<path d="M222.893 133V120.86H226.173V122.893H226.285C226.465 122.174 226.802 121.616 227.296 121.219C227.79 120.823 228.404 120.624 229.138 120.624C229.34 120.624 229.531 120.639 229.71 120.669C229.89 120.692 230.047 120.722 230.182 120.759V123.634C230.01 123.582 229.811 123.54 229.587 123.51C229.362 123.473 229.13 123.454 228.89 123.454C228.321 123.454 227.831 123.563 227.419 123.78C227.015 123.99 226.704 124.3 226.487 124.712C226.278 125.124 226.173 125.622 226.173 126.206V133H222.893Z" fill="white" fill-opacity="0.5"/>
<path d="M237.369 133.247C236.134 133.247 235.071 132.993 234.18 132.484C233.289 131.974 232.604 131.248 232.124 130.305C231.645 129.362 231.406 128.242 231.406 126.947V126.936C231.406 125.648 231.645 124.532 232.124 123.589C232.604 122.638 233.277 121.905 234.146 121.388C235.022 120.864 236.051 120.602 237.234 120.602C238.425 120.602 239.45 120.856 240.311 121.365C241.172 121.867 241.835 122.575 242.299 123.488C242.771 124.401 243.007 125.472 243.007 126.7V127.711H233.034V125.644H241.446L239.896 127.576V126.307C239.896 125.588 239.787 124.989 239.57 124.51C239.353 124.023 239.046 123.66 238.649 123.421C238.26 123.174 237.807 123.05 237.29 123.05C236.781 123.05 236.325 123.177 235.92 123.432C235.523 123.679 235.213 124.046 234.988 124.532C234.764 125.019 234.651 125.611 234.651 126.307V127.587C234.651 128.261 234.764 128.837 234.988 129.317C235.213 129.796 235.531 130.163 235.943 130.417C236.362 130.672 236.86 130.799 237.436 130.799C237.901 130.799 238.297 130.732 238.627 130.597C238.956 130.455 239.226 130.279 239.435 130.069C239.645 129.859 239.787 129.654 239.862 129.451L239.885 129.384H242.906L242.883 129.508C242.786 129.927 242.606 130.357 242.344 130.799C242.09 131.241 241.738 131.649 241.288 132.023C240.847 132.39 240.3 132.686 239.649 132.91C239.005 133.135 238.245 133.247 237.369 133.247Z" fill="white" fill-opacity="0.5"/>
<path d="M119.355 111C119.36 111.101 119.364 111.203 119.364 111.305C119.364 114.009 117.391 116.251 114.805 116.678C114.799 116.577 114.796 116.476 114.796 116.374C114.796 113.671 116.769 111.428 119.355 111Z" fill="white" fill-opacity="0.5"/>
<path d="M119.614 117.261C121.144 117.261 122.52 117.871 123.515 119.171C121.8 120.09 120.634 121.897 120.634 123.976C120.634 126.28 122.067 128.248 124.091 129.044C122.811 132.233 120.587 134.999 119.108 134.999C116.825 134.999 117.584 133.986 115.05 133.986C112.513 133.986 113.273 135 110.989 135C108.706 134.999 104.646 128.411 105.027 123.85C105.407 119.289 107.691 117.261 110.483 117.261C113.272 117.261 113.401 118.526 115.048 118.527C116.697 118.526 116.824 117.261 119.614 117.261Z" fill="white" fill-opacity="0.5"/>
<path d="M174.499 3L181.376 16.0345L195.897 18.5471L185.626 29.1155L187.724 43.7029L174.499 37.2L161.273 43.7029L163.371 29.1155L153.1 18.5471L167.622 16.0345L174.499 3Z" fill="#FACC15"/>
<path d="M129.499 11L136.376 24.0345L150.897 26.5471L140.626 37.1155L142.724 51.7029L129.499 45.2L116.273 51.7029L118.371 37.1155L108.1 26.5471L122.622 24.0345L129.499 11Z" fill="#FACC15"/>
<path d="M89.4986 28L94.8475 38.1379L106.142 40.0922L98.1533 48.3121L99.7849 59.6578L89.4986 54.6L79.2124 59.6578L80.844 48.3121L72.8551 40.0922L84.1498 38.1379L89.4986 28Z" fill="#FACC15"/>
<path d="M259.499 28L264.847 38.1379L276.142 40.0922L268.153 48.3121L269.785 59.6578L259.499 54.6L249.212 59.6578L250.844 48.3121L242.855 40.0922L254.15 38.1379L259.499 28Z" fill="#FACC15"/>
<path d="M219.499 11L226.376 24.0345L240.897 26.5471L230.626 37.1155L232.724 51.7029L219.499 45.2L206.273 51.7029L208.371 37.1155L198.1 26.5471L212.622 24.0345L219.499 11Z" fill="#FACC15"/>
</svg>
