<svg width="350" height="146" viewBox="0 0 350 146" fill="none" xmlns="http://www.w3.org/2000/svg">
<path d="M59.0511 112.389C62.5524 114.731 64.932 118.649 65.1344 123.18C65.3369 127.711 63.3148 131.825 60.0356 134.47C56.5352 132.128 54.1566 128.21 53.9542 123.68C53.7519 119.149 55.7722 115.033 59.0511 112.389Z" fill="white" fill-opacity="0.5"/>
<path d="M47.6755 101.033C50.3256 104.308 51.438 108.755 50.2881 113.143C49.138 117.53 45.9874 120.862 42.0718 122.415C39.4215 119.141 38.3095 114.692 39.4595 110.305C40.6095 105.917 43.7602 102.587 47.6755 101.033Z" fill="white" fill-opacity="0.5"/>
<path d="M39.867 88.4297C41.3449 92.3741 40.9925 96.945 38.5145 100.743C36.0363 104.542 31.9941 106.705 27.7883 106.941C26.3105 102.997 26.6622 98.4266 29.1402 94.6284C31.6187 90.8296 35.6608 88.6657 39.867 88.4297Z" fill="white" fill-opacity="0.5"/>
<path d="M40.9635 72.8429C41.0785 77.0545 39.2586 81.2627 35.6789 84.0487C32.0995 86.8344 27.5738 87.5648 23.5198 86.4197C23.4053 82.2086 25.2262 78.0011 28.8056 75.2154C32.3847 72.4302 36.9099 71.6982 40.9635 72.8429Z" fill="white" fill-opacity="0.5"/>
<path d="M44.5988 55.8162C43.6162 59.9124 40.7664 63.5029 36.5868 65.2639C32.4066 67.0251 27.8466 66.5552 24.2287 64.3965C25.2116 60.3009 28.0611 56.7108 32.2402 54.95C36.4202 53.1889 40.981 53.6577 44.5988 55.8162Z" fill="white" fill-opacity="0.5"/>
<path d="M54.4367 42.2909C52.7173 46.137 49.2549 49.1423 44.8222 50.1042C40.3894 51.0662 35.9936 49.7651 32.8347 46.9776C34.5544 43.1328 38.016 40.1284 42.4477 39.1666C46.8803 38.2047 51.2778 39.5037 54.4367 42.2909Z" fill="white" fill-opacity="0.5"/>
<path d="M55.377 16.8093C56.165 20.9481 55.0428 25.3934 51.9554 28.7168C48.8683 32.0398 44.5181 33.4857 40.333 33.0046C39.5455 28.8663 40.6678 24.4214 43.7547 21.0984C46.8416 17.7755 51.1921 16.3284 55.377 16.8093Z" fill="white" fill-opacity="0.5"/>
<path d="M16.7403 116.882C20.2611 114.569 24.7966 113.902 29.0488 115.481C33.3018 117.059 36.3042 120.524 37.4629 124.575C33.9424 126.887 29.4067 127.553 25.1551 125.975C20.9028 124.397 17.8993 120.932 16.7403 116.882Z" fill="white" fill-opacity="0.5"/>
<path d="M5.50719 93.6855C9.57813 92.6053 14.091 93.4076 17.6253 96.2489C21.1609 99.0911 22.9134 103.328 22.7319 107.537C18.6613 108.617 14.149 107.815 10.6151 104.974C7.07968 102.132 5.3257 97.8947 5.50719 93.6855Z" fill="white" fill-opacity="0.5"/>
<path d="M6.77318 66.6368C10.9753 66.9389 14.9832 69.1658 17.4016 73.0034C19.8199 76.8408 20.0986 81.4168 18.558 85.3378C14.3563 85.0353 10.3493 82.8074 7.9312 78.9702C5.51334 75.1331 5.23302 70.5575 6.77318 66.6368Z" fill="white" fill-opacity="0.5"/>
<path d="M34.2064 136.701C36.883 133.446 41.0188 131.465 45.5491 131.711C50.0769 131.958 53.9705 134.374 56.2785 137.897C53.6019 141.151 49.4674 143.133 44.9378 142.887C40.4097 142.64 36.5144 140.224 34.2064 136.701Z" fill="white" fill-opacity="0.5"/>
<path d="M26.2943 21.8919C29.9521 23.983 32.6018 27.7259 33.1208 32.2325C33.6396 36.739 31.9101 40.9855 28.8235 43.8532C25.1662 41.7621 22.5181 38.0195 21.999 33.5134C21.48 29.007 23.208 24.7597 26.2943 21.8919Z" fill="white" fill-opacity="0.5"/>
<path d="M13.1783 40.944C17.1572 42.3268 20.4484 45.5177 21.7876 49.8509C23.1268 54.1844 22.209 58.6757 19.7036 62.0624C15.7253 60.6794 12.4345 57.4888 11.0954 53.1562C9.75629 48.8228 10.6731 44.3306 13.1783 40.944Z" fill="white" fill-opacity="0.5"/>
<path d="M290.488 112.389C286.987 114.731 284.607 118.649 284.405 123.18C284.202 127.711 286.224 131.825 289.503 134.47C293.004 132.128 295.382 128.21 295.585 123.68C295.787 119.149 293.767 115.033 290.488 112.389Z" fill="white" fill-opacity="0.5"/>
<path d="M301.871 101.033C299.221 104.308 298.109 108.755 299.259 113.143C300.409 117.53 303.56 120.862 307.475 122.415C310.125 119.141 311.237 114.692 310.087 110.305C308.937 105.917 305.787 102.587 301.871 101.033Z" fill="white" fill-opacity="0.5"/>
<path d="M309.68 88.4309C308.203 92.3751 308.555 96.9453 311.033 100.743C313.511 104.542 317.554 106.705 321.76 106.94C323.236 102.997 322.884 98.4271 320.407 94.6296C317.928 90.8308 313.886 88.6669 309.68 88.4309Z" fill="white" fill-opacity="0.5"/>
<path d="M308.579 72.8429C308.464 77.0545 310.284 81.2627 313.864 84.0487C317.443 86.8344 321.969 87.5648 326.023 86.4197C326.138 82.2086 324.317 78.0011 320.737 75.2154C317.158 72.4302 312.633 71.6982 308.579 72.8429Z" fill="white" fill-opacity="0.5"/>
<path d="M304.952 55.8162C305.935 59.9124 308.784 63.5029 312.964 65.2639C317.144 67.0251 321.704 66.5552 325.322 64.3965C324.339 60.3009 321.49 56.7108 317.311 54.95C313.131 53.1889 308.57 53.6577 304.952 55.8162Z" fill="white" fill-opacity="0.5"/>
<path d="M295.11 42.2909C296.83 46.137 300.292 49.1423 304.725 50.1042C309.158 51.0662 313.553 49.7651 316.712 46.9776C314.992 43.1328 311.531 40.1284 307.099 39.1666C302.667 38.2047 298.269 39.5037 295.11 42.2909Z" fill="white" fill-opacity="0.5"/>
<path d="M294.162 16.8093C293.374 20.9481 294.496 25.3934 297.584 28.7168C300.671 32.0398 305.021 33.4857 309.206 33.0046C309.994 28.8663 308.871 24.4214 305.784 21.0984C302.697 17.7755 298.347 16.3284 294.162 16.8093Z" fill="white" fill-opacity="0.5"/>
<path d="M332.807 116.882C329.286 114.569 324.75 113.902 320.498 115.481C316.245 117.059 313.243 120.524 312.084 124.575C315.604 126.887 320.14 127.553 324.392 125.975C328.644 124.397 331.648 120.932 332.807 116.882Z" fill="white" fill-opacity="0.5"/>
<path d="M344.036 93.6856C339.965 92.6054 335.453 93.4077 331.918 96.249C328.383 99.0913 326.63 103.328 326.812 107.538C330.882 108.617 335.394 107.814 338.928 104.973C342.463 102.131 344.218 97.8949 344.036 93.6856Z" fill="white" fill-opacity="0.5"/>
<path d="M342.778 66.6368C338.575 66.9389 334.568 69.1658 332.149 73.0034C329.731 76.8408 329.452 81.4168 330.993 85.3378C335.194 85.0353 339.201 82.8074 341.62 78.9702C344.037 75.1331 344.318 70.5575 342.778 66.6368Z" fill="white" fill-opacity="0.5"/>
<path d="M315.34 136.701C312.664 133.446 308.528 131.465 303.998 131.711C299.47 131.958 295.576 134.374 293.268 137.897C295.945 141.151 300.079 143.133 304.609 142.887C309.137 142.64 313.033 140.224 315.34 136.701Z" fill="white" fill-opacity="0.5"/>
<path d="M323.253 21.8919C319.595 23.983 316.945 27.7259 316.426 32.2325C315.907 36.739 317.637 40.9855 320.723 43.8532C324.381 41.7621 327.029 38.0195 327.548 33.5134C328.067 29.007 326.339 24.7597 323.253 21.8919Z" fill="white" fill-opacity="0.5"/>
<path d="M336.369 40.944C332.39 42.3268 329.098 45.5177 327.759 49.8509C326.42 54.1844 327.338 58.6757 329.843 62.0624C333.822 60.6794 337.112 57.4888 338.451 53.1562C339.791 48.8228 338.874 44.3306 336.369 40.944Z" fill="white" fill-opacity="0.5"/>
<path d="M61.8306 93.3164C60.4869 93.3164 59.315 93.1211 58.315 92.7305C57.3228 92.332 56.5416 91.7656 55.9713 91.0312C55.4088 90.2891 55.0923 89.4023 55.022 88.3711L55.0103 88.1836H58.3619L58.3853 88.3125C58.4556 88.7422 58.647 89.1172 58.9595 89.4375C59.2798 89.75 59.69 89.9961 60.19 90.1758C60.6978 90.3555 61.272 90.4453 61.9127 90.4453C62.5689 90.4453 63.1353 90.3555 63.6119 90.1758C64.0884 89.9961 64.4556 89.7422 64.7134 89.4141C64.9713 89.0859 65.1002 88.707 65.1002 88.2773V88.2656C65.1002 87.7031 64.8736 87.2578 64.4205 86.9297C63.9752 86.6016 63.2291 86.332 62.1822 86.1211L60.3892 85.7578C58.7095 85.4219 57.4517 84.8516 56.6158 84.0469C55.7798 83.2422 55.3619 82.2031 55.3619 80.9297V80.918C55.3697 79.8867 55.647 78.9883 56.1939 78.2227C56.7486 77.4492 57.5103 76.8477 58.4791 76.418C59.4556 75.9883 60.565 75.7734 61.8072 75.7734C63.1197 75.7734 64.2486 75.9805 65.1939 76.3945C66.1392 76.8008 66.8775 77.375 67.4088 78.1172C67.9478 78.8594 68.2447 79.7188 68.2994 80.6953L68.3111 80.9062H64.9713L64.9595 80.7656C64.897 80.3203 64.7291 79.9414 64.4556 79.6289C64.1822 79.3164 63.8189 79.0742 63.3658 78.9023C62.9205 78.7305 62.4009 78.6445 61.8072 78.6445C61.2134 78.6445 60.6978 78.7344 60.2603 78.9141C59.8306 79.0859 59.4947 79.3242 59.2525 79.6289C59.0181 79.9336 58.9009 80.2891 58.9009 80.6953V80.707C58.9009 81.2461 59.1275 81.6797 59.5806 82.0078C60.0338 82.3359 60.7486 82.6016 61.7252 82.8047L63.5064 83.168C64.6939 83.4023 65.6666 83.7266 66.4244 84.1406C67.1822 84.5547 67.7408 85.0781 68.1002 85.7109C68.4595 86.3359 68.6392 87.0898 68.6392 87.9727V87.9844C68.6392 89.0703 68.3658 90.0156 67.8189 90.8203C67.2798 91.6172 66.5025 92.2344 65.4869 92.6719C64.4713 93.1016 63.2525 93.3164 61.8306 93.3164ZM71.2638 93V80.3789H74.6856V93H71.2638ZM72.9747 78.7031C72.4591 78.7031 72.0216 78.5273 71.6622 78.1758C71.3106 77.8164 71.1348 77.3906 71.1348 76.8984C71.1348 76.3984 71.3106 75.9727 71.6622 75.6211C72.0216 75.2695 72.4591 75.0938 72.9747 75.0938C73.4981 75.0938 73.9356 75.2695 74.2872 75.6211C74.6466 75.9727 74.8263 76.3984 74.8263 76.8984C74.8263 77.3906 74.6466 77.8164 74.2872 78.1758C73.9356 78.5273 73.4981 78.7031 72.9747 78.7031ZM77.6617 93V80.3789H81.0836V82.4766H81.1773C81.4352 81.7578 81.8766 81.1836 82.5016 80.7539C83.1266 80.3242 83.8609 80.1094 84.7047 80.1094C85.2906 80.1094 85.818 80.2109 86.2867 80.4141C86.7633 80.6172 87.1617 80.9102 87.482 81.293C87.8102 81.668 88.0445 82.1289 88.1852 82.6758H88.2789C88.4742 82.1523 88.7594 81.6992 89.1344 81.3164C89.5094 80.9336 89.9586 80.6367 90.482 80.4258C91.0055 80.2148 91.5719 80.1094 92.1813 80.1094C93.0094 80.1094 93.732 80.2891 94.3492 80.6484C94.9664 81 95.4469 81.4922 95.7906 82.125C96.1344 82.7578 96.3063 83.5039 96.3063 84.3633V93H92.8844V85.2188C92.8844 84.7266 92.8023 84.3125 92.6383 83.9766C92.482 83.6406 92.2516 83.3867 91.9469 83.2148C91.6422 83.0352 91.2633 82.9453 90.8102 82.9453C90.3805 82.9453 90.0016 83.0469 89.6734 83.25C89.3453 83.4531 89.0914 83.7305 88.9117 84.082C88.732 84.4336 88.6422 84.8438 88.6422 85.3125V93H85.3258V85.1133C85.3258 84.6523 85.2438 84.2617 85.0797 83.9414C84.9156 83.6211 84.6813 83.375 84.3766 83.2031C84.0719 83.0312 83.7047 82.9453 83.275 82.9453C82.8453 82.9453 82.4664 83.0508 82.1383 83.2617C81.8102 83.4727 81.5523 83.7617 81.3648 84.1289C81.1773 84.4883 81.0836 84.9062 81.0836 85.3828V93H77.6617ZM99.1652 97.1367V80.3789H102.587V82.5352H102.693C102.919 82.0352 103.216 81.6055 103.583 81.2461C103.958 80.8867 104.392 80.6133 104.884 80.4258C105.384 80.2305 105.935 80.1328 106.536 80.1328C107.599 80.1328 108.513 80.3945 109.278 80.918C110.052 81.4336 110.646 82.1836 111.06 83.168C111.474 84.1445 111.681 85.3164 111.681 86.6836V86.6953C111.681 88.0625 111.474 89.2344 111.06 90.2109C110.646 91.1875 110.056 91.9375 109.29 92.4609C108.532 92.9844 107.626 93.2461 106.571 93.2461C105.978 93.2461 105.427 93.1523 104.919 92.9648C104.411 92.7695 103.97 92.4961 103.595 92.1445C103.22 91.793 102.915 91.3711 102.681 90.8789H102.587V97.1367H99.1652ZM105.4 90.4102C105.97 90.4102 106.466 90.2617 106.888 89.9648C107.31 89.6602 107.634 89.2305 107.86 88.6758C108.087 88.1211 108.2 87.4609 108.2 86.6953V86.6836C108.2 85.9102 108.083 85.2461 107.849 84.6914C107.622 84.1367 107.298 83.7109 106.876 83.4141C106.462 83.1172 105.97 82.9688 105.4 82.9688C104.837 82.9688 104.341 83.1211 103.911 83.4258C103.489 83.7227 103.157 84.1484 102.915 84.7031C102.681 85.2578 102.564 85.918 102.564 86.6836V86.6953C102.564 87.4609 102.685 88.1211 102.927 88.6758C103.169 89.2305 103.501 89.6602 103.923 89.9648C104.345 90.2617 104.837 90.4102 105.4 90.4102ZM119.848 93.2578C118.559 93.2578 117.45 92.9961 116.52 92.4727C115.598 91.9414 114.887 91.1836 114.387 90.1992C113.887 89.2148 113.637 88.0508 113.637 86.707V86.6953C113.637 85.3594 113.883 84.1992 114.376 83.2148C114.876 82.2305 115.579 81.4688 116.485 80.9297C117.399 80.3828 118.473 80.1094 119.708 80.1094C120.934 80.1094 121.997 80.375 122.895 80.9062C123.794 81.4297 124.485 82.168 124.969 83.1211C125.462 84.0664 125.708 85.1758 125.708 86.4492V87.5039H115.325V85.3477H124.079L122.462 87.3633V86.0391C122.462 85.2969 122.348 84.6758 122.122 84.1758C121.895 83.6758 121.579 83.3008 121.173 83.0508C120.766 82.8008 120.298 82.6758 119.766 82.6758C119.227 82.6758 118.751 82.8047 118.337 83.0625C117.923 83.3203 117.598 83.7031 117.364 84.2109C117.13 84.7109 117.012 85.3203 117.012 86.0391V87.375C117.012 88.0781 117.13 88.6797 117.364 89.1797C117.598 89.6719 117.93 90.0508 118.36 90.3164C118.798 90.5742 119.317 90.7031 119.919 90.7031C120.387 90.7031 120.794 90.6328 121.137 90.4922C121.489 90.3438 121.77 90.1602 121.981 89.9414C122.2 89.7148 122.348 89.4883 122.426 89.2617L122.45 89.1914H125.602L125.567 89.3203C125.473 89.7734 125.29 90.2305 125.016 90.6914C124.751 91.1523 124.383 91.5781 123.915 91.9688C123.454 92.3594 122.883 92.6719 122.204 92.9062C121.532 93.1406 120.747 93.2578 119.848 93.2578ZM128.227 93V75.9258H131.649V93H128.227ZM152.261 93L144.198 84.2344C143.558 83.5312 143.046 82.9297 142.663 82.4297C142.288 81.9219 142.019 81.4648 141.855 81.0586C141.698 80.6445 141.616 80.2305 141.609 79.8164V79.8047C141.609 79.0391 141.816 78.3594 142.23 77.7656C142.644 77.1719 143.214 76.707 143.941 76.3711C144.667 76.0352 145.495 75.8672 146.425 75.8672C147.339 75.8672 148.148 76.0312 148.851 76.3594C149.562 76.6797 150.116 77.1328 150.515 77.7188C150.913 78.2969 151.113 78.9688 151.113 79.7344V79.7461C151.113 80.3633 150.964 80.9492 150.667 81.5039C150.37 82.0508 149.902 82.5781 149.261 83.0859C148.628 83.5938 147.8 84.0977 146.777 84.5977L145.183 82.9922C145.909 82.6641 146.499 82.3438 146.952 82.0312C147.405 81.7109 147.738 81.3828 147.948 81.0469C148.167 80.7109 148.277 80.3438 148.277 79.9453V79.9336C148.277 79.582 148.195 79.2695 148.03 78.9961C147.874 78.7227 147.655 78.5117 147.374 78.3633C147.101 78.207 146.784 78.1289 146.425 78.1289C146.066 78.1289 145.741 78.207 145.452 78.3633C145.171 78.5195 144.948 78.7344 144.784 79.0078C144.62 79.2812 144.538 79.5898 144.538 79.9336V79.9453C144.538 80.2266 144.605 80.5078 144.738 80.7891C144.878 81.0625 145.097 81.375 145.394 81.7266C145.698 82.0781 146.097 82.5156 146.589 83.0391L156.034 92.9531V93H152.261ZM145.71 93.3047C144.515 93.3047 143.476 93.1094 142.593 92.7188C141.71 92.3281 141.027 91.7812 140.542 91.0781C140.058 90.3672 139.816 89.5352 139.816 88.582V88.5703C139.816 87.6172 140.073 86.7695 140.589 86.0273C141.105 85.2773 141.917 84.6055 143.027 84.0117L144.609 83.1562L146.296 84.8906L144.902 85.6758C144.23 86.0508 143.745 86.4531 143.448 86.8828C143.159 87.3047 143.015 87.7734 143.015 88.2891V88.3008C143.015 88.8086 143.14 89.2539 143.39 89.6367C143.648 90.0117 144.007 90.3047 144.468 90.5156C144.929 90.7188 145.46 90.8203 146.062 90.8203C146.655 90.8203 147.206 90.7383 147.714 90.5742C148.222 90.4023 148.683 90.1641 149.097 89.8594C149.511 89.5547 149.866 89.2109 150.163 88.8281C150.609 88.2422 150.945 87.5586 151.171 86.7773C151.398 85.9883 151.511 85.0859 151.511 84.0703V83.5312H154.37V84.2227C154.37 85.6133 154.171 86.8555 153.773 87.9492C153.374 89.043 152.796 89.9883 152.038 90.7852C151.296 91.5742 150.394 92.1914 149.331 92.6367C148.269 93.082 147.062 93.3047 145.71 93.3047ZM169.006 97.3945C167.85 97.3945 166.846 97.2344 165.994 96.9141C165.143 96.6016 164.467 96.1719 163.967 95.625C163.467 95.0859 163.162 94.4766 163.053 93.7969L163.041 93.7031H166.381L166.416 93.7734C166.541 94.0938 166.826 94.3711 167.272 94.6055C167.717 94.8398 168.303 94.957 169.03 94.957C169.912 94.957 170.588 94.7461 171.057 94.3242C171.526 93.9023 171.76 93.3398 171.76 92.6367V90.6211H171.666C171.448 91.0664 171.147 91.4492 170.764 91.7695C170.389 92.082 169.951 92.3242 169.451 92.4961C168.951 92.668 168.397 92.7539 167.787 92.7539C166.74 92.7539 165.83 92.5039 165.057 92.0039C164.291 91.4961 163.701 90.7773 163.287 89.8477C162.881 88.918 162.678 87.8125 162.678 86.5312V86.5078C162.678 85.1875 162.885 84.0508 163.299 83.0977C163.721 82.1445 164.319 81.4141 165.092 80.9062C165.865 80.3906 166.783 80.1328 167.846 80.1328C168.44 80.1328 168.983 80.2305 169.475 80.4258C169.967 80.6211 170.397 80.8984 170.764 81.2578C171.139 81.6094 171.44 82.0312 171.666 82.5234H171.76V80.3789H175.182V92.6367C175.182 93.582 174.932 94.4102 174.432 95.1211C173.932 95.8398 173.217 96.3984 172.287 96.7969C171.365 97.1953 170.272 97.3945 169.006 97.3945ZM168.971 90.2227C169.541 90.2227 170.037 90.0742 170.459 89.7773C170.881 89.4805 171.205 89.0625 171.432 88.5234C171.666 87.9766 171.783 87.332 171.783 86.5898V86.5781C171.783 85.8359 171.666 85.1953 171.432 84.6562C171.198 84.1094 170.869 83.6914 170.448 83.4023C170.033 83.1055 169.541 82.957 168.971 82.957C168.393 82.957 167.893 83.1055 167.471 83.4023C167.049 83.6914 166.725 84.1055 166.498 84.6445C166.272 85.1836 166.158 85.8242 166.158 86.5664V86.5898C166.158 87.332 166.272 87.9766 166.498 88.5234C166.725 89.0703 167.049 89.4922 167.471 89.7891C167.893 90.0781 168.393 90.2227 168.971 90.2227ZM183.83 93.2578C182.541 93.2578 181.431 92.9961 180.502 92.4727C179.58 91.9414 178.869 91.1836 178.369 90.1992C177.869 89.2148 177.619 88.0508 177.619 86.707V86.6953C177.619 85.3594 177.865 84.1992 178.357 83.2148C178.857 82.2305 179.56 81.4688 180.467 80.9297C181.381 80.3828 182.455 80.1094 183.689 80.1094C184.916 80.1094 185.978 80.375 186.877 80.9062C187.775 81.4297 188.467 82.168 188.951 83.1211C189.443 84.0664 189.689 85.1758 189.689 86.4492V87.5039H179.306V85.3477H188.06L186.443 87.3633V86.0391C186.443 85.2969 186.33 84.6758 186.103 84.1758C185.877 83.6758 185.56 83.3008 185.154 83.0508C184.748 82.8008 184.279 82.6758 183.748 82.6758C183.209 82.6758 182.732 82.8047 182.318 83.0625C181.904 83.3203 181.58 83.7031 181.345 84.2109C181.111 84.7109 180.994 85.3203 180.994 86.0391V87.375C180.994 88.0781 181.111 88.6797 181.345 89.1797C181.58 89.6719 181.912 90.0508 182.342 90.3164C182.779 90.5742 183.299 90.7031 183.9 90.7031C184.369 90.7031 184.775 90.6328 185.119 90.4922C185.47 90.3438 185.752 90.1602 185.963 89.9414C186.181 89.7148 186.33 89.4883 186.408 89.2617L186.431 89.1914H189.584L189.549 89.3203C189.455 89.7734 189.271 90.2305 188.998 90.6914C188.732 91.1523 188.365 91.5781 187.896 91.9688C187.435 92.3594 186.865 92.6719 186.185 92.9062C185.513 93.1406 184.728 93.2578 183.83 93.2578ZM192.115 93V80.3789H195.536V82.5352H195.63C195.818 81.7773 196.165 81.1875 196.673 80.7656C197.181 80.3438 197.81 80.1328 198.56 80.1328C198.763 80.1328 198.954 80.1445 199.134 80.168C199.314 80.1914 199.47 80.2266 199.603 80.2734V83.2734C199.439 83.2109 199.243 83.1641 199.017 83.1328C198.79 83.1016 198.552 83.0859 198.302 83.0859C197.724 83.0859 197.228 83.1953 196.814 83.4141C196.4 83.6328 196.083 83.957 195.865 84.3867C195.646 84.8086 195.536 85.3242 195.536 85.9336V93H192.115ZM205.063 93.1992C204.227 93.1992 203.493 93.0391 202.86 92.7188C202.227 92.3906 201.731 91.9414 201.372 91.3711C201.02 90.793 200.845 90.1328 200.845 89.3906V89.3672C200.845 88.6016 201.036 87.9492 201.419 87.4102C201.802 86.8633 202.356 86.4336 203.083 86.1211C203.817 85.8008 204.708 85.6094 205.755 85.5469L210.63 85.2422V87.3633L206.27 87.6445C205.598 87.6836 205.087 87.8398 204.735 88.1133C204.391 88.3789 204.22 88.7383 204.22 89.1914V89.2031C204.22 89.6719 204.395 90.0391 204.747 90.3047C205.106 90.5703 205.583 90.7031 206.177 90.7031C206.692 90.7031 207.149 90.6016 207.548 90.3984C207.954 90.1953 208.274 89.9219 208.509 89.5781C208.743 89.2266 208.86 88.832 208.86 88.3945V84.5273C208.86 83.9727 208.68 83.5352 208.321 83.2148C207.97 82.8945 207.454 82.7344 206.774 82.7344C206.141 82.7344 205.634 82.8633 205.251 83.1211C204.876 83.3711 204.641 83.6953 204.548 84.0938L204.524 84.1992H201.384L201.395 84.0586C201.466 83.2852 201.727 82.6055 202.18 82.0195C202.641 81.4258 203.27 80.9609 204.067 80.625C204.872 80.2812 205.825 80.1094 206.927 80.1094C208.02 80.1094 208.966 80.2852 209.762 80.6367C210.559 80.9883 211.177 81.4805 211.614 82.1133C212.052 82.7461 212.27 83.4922 212.27 84.3516V93H208.86V91.1602H208.766C208.532 91.582 208.227 91.9453 207.852 92.25C207.485 92.5547 207.067 92.7891 206.598 92.9531C206.13 93.1172 205.618 93.1992 205.063 93.1992ZM216.078 93V82.957H214.309V80.3789H216.078V79.3359C216.078 78.5078 216.219 77.8242 216.5 77.2852C216.789 76.7461 217.239 76.3477 217.848 76.0898C218.465 75.8242 219.274 75.6914 220.274 75.6914C220.594 75.6914 220.91 75.707 221.223 75.7383C221.535 75.7617 221.797 75.793 222.008 75.832V78.0938C221.891 78.0703 221.75 78.0547 221.586 78.0469C221.43 78.0391 221.266 78.0352 221.094 78.0352C220.516 78.0352 220.09 78.1602 219.817 78.4102C219.551 78.6523 219.418 79.0078 219.418 79.4766V80.3789H221.961V82.957H219.5V93H216.078ZM224.457 93V80.3789H227.879V93H224.457ZM226.168 78.7031C225.652 78.7031 225.215 78.5273 224.855 78.1758C224.504 77.8164 224.328 77.3906 224.328 76.8984C224.328 76.3984 224.504 75.9727 224.855 75.6211C225.215 75.2695 225.652 75.0938 226.168 75.0938C226.691 75.0938 227.129 75.2695 227.48 75.6211C227.84 75.9727 228.019 76.3984 228.019 76.8984C228.019 77.3906 227.84 77.8164 227.48 78.1758C227.129 78.5273 226.691 78.7031 226.168 78.7031ZM230.855 93V80.3789H234.277V82.4297H234.37C234.691 81.7109 235.171 81.1445 235.812 80.7305C236.452 80.3164 237.242 80.1094 238.179 80.1094C239.57 80.1094 240.64 80.5273 241.39 81.3633C242.148 82.1992 242.527 83.3594 242.527 84.8438V93H239.105V85.5703C239.105 84.7344 238.913 84.0898 238.531 83.6367C238.148 83.1758 237.566 82.9453 236.785 82.9453C236.277 82.9453 235.835 83.0625 235.46 83.2969C235.085 83.5312 234.792 83.8594 234.581 84.2812C234.378 84.6953 234.277 85.1797 234.277 85.7344V93H230.855ZM251.116 93.2578C249.827 93.2578 248.718 92.9961 247.788 92.4727C246.866 91.9414 246.155 91.1836 245.655 90.1992C245.155 89.2148 244.905 88.0508 244.905 86.707V86.6953C244.905 85.3594 245.151 84.1992 245.643 83.2148C246.143 82.2305 246.847 81.4688 247.753 80.9297C248.667 80.3828 249.741 80.1094 250.975 80.1094C252.202 80.1094 253.265 80.375 254.163 80.9062C255.061 81.4297 255.753 82.168 256.237 83.1211C256.729 84.0664 256.975 85.1758 256.975 86.4492V87.5039H246.593V85.3477H255.347L253.729 87.3633V86.0391C253.729 85.2969 253.616 84.6758 253.39 84.1758C253.163 83.6758 252.847 83.3008 252.44 83.0508C252.034 82.8008 251.565 82.6758 251.034 82.6758C250.495 82.6758 250.018 82.8047 249.604 83.0625C249.19 83.3203 248.866 83.7031 248.632 84.2109C248.397 84.7109 248.28 85.3203 248.28 86.0391V87.375C248.28 88.0781 248.397 88.6797 248.632 89.1797C248.866 89.6719 249.198 90.0508 249.628 90.3164C250.065 90.5742 250.585 90.7031 251.186 90.7031C251.655 90.7031 252.061 90.6328 252.405 90.4922C252.757 90.3438 253.038 90.1602 253.249 89.9414C253.468 89.7148 253.616 89.4883 253.694 89.2617L253.718 89.1914H256.87L256.835 89.3203C256.741 89.7734 256.557 90.2305 256.284 90.6914C256.018 91.1523 255.651 91.5781 255.182 91.9688C254.722 92.3594 254.151 92.6719 253.472 92.9062C252.8 93.1406 252.015 93.2578 251.116 93.2578ZM265.12 93.2578C263.83 93.2578 262.721 92.9961 261.791 92.4727C260.87 91.9414 260.159 91.1836 259.659 90.1992C259.159 89.2148 258.909 88.0508 258.909 86.707V86.6953C258.909 85.3594 259.155 84.1992 259.647 83.2148C260.147 82.2305 260.85 81.4688 261.756 80.9297C262.67 80.3828 263.745 80.1094 264.979 80.1094C266.205 80.1094 267.268 80.375 268.166 80.9062C269.065 81.4297 269.756 82.168 270.241 83.1211C270.733 84.0664 270.979 85.1758 270.979 86.4492V87.5039H260.596V85.3477H269.35L267.733 87.3633V86.0391C267.733 85.2969 267.62 84.6758 267.393 84.1758C267.166 83.6758 266.85 83.3008 266.444 83.0508C266.038 82.8008 265.569 82.6758 265.038 82.6758C264.498 82.6758 264.022 82.8047 263.608 83.0625C263.194 83.3203 262.87 83.7031 262.635 84.2109C262.401 84.7109 262.284 85.3203 262.284 86.0391V87.375C262.284 88.0781 262.401 88.6797 262.635 89.1797C262.87 89.6719 263.202 90.0508 263.631 90.3164C264.069 90.5742 264.588 90.7031 265.19 90.7031C265.659 90.7031 266.065 90.6328 266.409 90.4922C266.76 90.3438 267.041 90.1602 267.252 89.9414C267.471 89.7148 267.62 89.4883 267.698 89.2617L267.721 89.1914H270.873L270.838 89.3203C270.745 89.7734 270.561 90.2305 270.288 90.6914C270.022 91.1523 269.655 91.5781 269.186 91.9688C268.725 92.3594 268.155 92.6719 267.475 92.9062C266.803 93.1406 266.018 93.2578 265.12 93.2578ZM273.404 93V80.3789H276.826V82.5352H276.92C277.107 81.7773 277.455 81.1875 277.963 80.7656C278.471 80.3438 279.1 80.1328 279.85 80.1328C280.053 80.1328 280.244 80.1445 280.424 80.168C280.603 80.1914 280.76 80.2266 280.893 80.2734V83.2734C280.728 83.2109 280.533 83.1641 280.307 83.1328C280.08 83.1016 279.842 83.0859 279.592 83.0859C279.014 83.0859 278.518 83.1953 278.103 83.4141C277.689 83.6328 277.373 83.957 277.154 84.3867C276.935 84.8086 276.826 85.3242 276.826 85.9336V93H273.404ZM287.173 93.2461C286.119 93.2461 285.205 92.9844 284.431 92.4609C283.665 91.9375 283.076 91.1875 282.662 90.2109C282.247 89.2266 282.04 88.0547 282.04 86.6953V86.6719C282.04 85.3047 282.247 84.1328 282.662 83.1562C283.076 82.1797 283.665 81.4336 284.431 80.918C285.205 80.3945 286.119 80.1328 287.173 80.1328C287.767 80.1328 288.314 80.2305 288.814 80.4258C289.322 80.6133 289.763 80.8867 290.138 81.2461C290.521 81.6055 290.822 82.0352 291.04 82.5352H291.146V75.9258H294.568V93H291.146V90.8906H291.04C290.822 91.3828 290.525 91.8047 290.15 92.1562C289.775 92.5 289.337 92.7695 288.837 92.9648C288.337 93.1523 287.783 93.2461 287.173 93.2461ZM288.322 90.4102C288.884 90.4102 289.376 90.2617 289.798 89.9648C290.228 89.6602 290.56 89.2305 290.794 88.6758C291.029 88.1133 291.146 87.4531 291.146 86.6953V86.6836C291.146 85.918 291.025 85.2578 290.783 84.7031C290.548 84.1484 290.22 83.7227 289.798 83.4258C289.376 83.1211 288.884 82.9688 288.322 82.9688C287.751 82.9688 287.255 83.1172 286.833 83.4141C286.412 83.7109 286.087 84.1367 285.861 84.6914C285.634 85.2461 285.521 85.9062 285.521 86.6719V86.6953C285.521 87.4609 285.634 88.1211 285.861 88.6758C286.087 89.2305 286.412 89.6602 286.833 89.9648C287.255 90.2617 287.751 90.4102 288.322 90.4102Z" fill="white"/>
<path d="M135.622 133V116.794H146.358V119.591H139.014V123.488H145.943V126.127H139.014V130.204H146.358V133H135.622ZM149.334 133V120.86H152.613V122.848H152.726C152.973 122.159 153.396 121.612 153.995 121.208C154.594 120.804 155.297 120.602 156.106 120.602C156.667 120.602 157.173 120.699 157.622 120.894C158.079 121.081 158.464 121.354 158.779 121.713C159.093 122.073 159.322 122.507 159.464 123.016H159.576C159.756 122.529 160.025 122.106 160.385 121.747C160.752 121.38 161.182 121.099 161.676 120.905C162.178 120.703 162.721 120.602 163.305 120.602C164.106 120.602 164.802 120.77 165.393 121.107C165.985 121.444 166.445 121.919 166.775 122.533C167.104 123.14 167.269 123.858 167.269 124.689V133H163.99V125.509C163.99 125.03 163.911 124.63 163.754 124.308C163.604 123.986 163.383 123.742 163.091 123.578C162.799 123.405 162.432 123.319 161.991 123.319C161.571 123.319 161.205 123.417 160.89 123.611C160.576 123.806 160.332 124.072 160.16 124.409C159.988 124.746 159.902 125.139 159.902 125.588V133H156.701V125.397C156.701 124.955 156.622 124.581 156.465 124.274C156.308 123.967 156.08 123.731 155.78 123.566C155.488 123.402 155.136 123.319 154.725 123.319C154.305 123.319 153.938 123.42 153.624 123.623C153.31 123.825 153.062 124.102 152.883 124.454C152.703 124.806 152.613 125.21 152.613 125.667V133H149.334ZM175.624 133.247C174.389 133.247 173.325 132.993 172.435 132.483C171.544 131.974 170.859 131.248 170.379 130.305C169.9 129.361 169.661 128.242 169.661 126.947V126.936C169.661 125.648 169.9 124.532 170.379 123.589C170.859 122.638 171.532 121.904 172.401 121.388C173.277 120.864 174.306 120.602 175.489 120.602C176.68 120.602 177.705 120.856 178.566 121.365C179.427 121.867 180.09 122.574 180.554 123.488C181.026 124.401 181.262 125.472 181.262 126.7V127.71H171.289V125.644H179.701L178.151 127.576V126.307C178.151 125.588 178.042 124.989 177.825 124.51C177.608 124.023 177.301 123.66 176.904 123.42C176.515 123.173 176.062 123.05 175.545 123.05C175.036 123.05 174.58 123.177 174.175 123.432C173.778 123.679 173.468 124.046 173.243 124.532C173.019 125.019 172.906 125.61 172.906 126.307V127.587C172.906 128.261 173.019 128.837 173.243 129.316C173.468 129.796 173.786 130.162 174.198 130.417C174.617 130.672 175.115 130.799 175.691 130.799C176.156 130.799 176.552 130.731 176.882 130.597C177.211 130.454 177.481 130.278 177.69 130.069C177.9 129.859 178.042 129.653 178.117 129.451L178.14 129.384H181.161L181.138 129.507C181.041 129.927 180.861 130.357 180.599 130.799C180.345 131.241 179.993 131.649 179.543 132.023C179.102 132.39 178.555 132.686 177.904 132.91C177.26 133.135 176.5 133.247 175.624 133.247ZM183.743 133V120.86H187.022V122.893H187.135C187.314 122.174 187.651 121.616 188.146 121.219C188.64 120.822 189.254 120.624 189.987 120.624C190.189 120.624 190.38 120.639 190.56 120.669C190.74 120.691 190.897 120.721 191.032 120.759V123.634C190.86 123.581 190.661 123.54 190.437 123.51C190.212 123.473 189.98 123.454 189.74 123.454C189.171 123.454 188.681 123.563 188.269 123.78C187.865 123.989 187.554 124.3 187.337 124.712C187.127 125.124 187.022 125.622 187.022 126.206V133H183.743ZM198.241 133.247C196.998 133.247 195.928 132.996 195.029 132.495C194.138 131.986 193.453 131.259 192.974 130.316C192.495 129.365 192.255 128.231 192.255 126.913V126.902C192.255 125.592 192.495 124.469 192.974 123.533C193.461 122.589 194.15 121.867 195.041 121.365C195.932 120.856 196.991 120.602 198.219 120.602C199.312 120.602 200.255 120.8 201.049 121.197C201.85 121.594 202.475 122.14 202.924 122.836C203.381 123.525 203.639 124.311 203.699 125.195V125.262H200.656L200.645 125.184C200.54 124.6 200.285 124.12 199.881 123.746C199.484 123.364 198.941 123.173 198.252 123.173C197.698 123.173 197.223 123.323 196.826 123.623C196.429 123.915 196.122 124.341 195.905 124.903C195.696 125.457 195.591 126.127 195.591 126.913V126.924C195.591 127.725 195.696 128.407 195.905 128.968C196.122 129.53 196.429 129.957 196.826 130.249C197.231 130.533 197.71 130.675 198.264 130.675C198.923 130.675 199.454 130.503 199.858 130.159C200.263 129.807 200.525 129.32 200.645 128.699L200.656 128.62H203.711L203.699 128.699C203.624 129.575 203.359 130.357 202.902 131.046C202.445 131.735 201.82 132.274 201.026 132.663C200.24 133.052 199.312 133.247 198.241 133.247ZM211.526 133.247C210.291 133.247 209.228 132.993 208.337 132.483C207.446 131.974 206.761 131.248 206.282 130.305C205.803 129.361 205.563 128.242 205.563 126.947V126.936C205.563 125.648 205.803 124.532 206.282 123.589C206.761 122.638 207.435 121.904 208.303 121.388C209.179 120.864 210.209 120.602 211.392 120.602C212.582 120.602 213.608 120.856 214.469 121.365C215.33 121.867 215.992 122.574 216.457 123.488C216.928 124.401 217.164 125.472 217.164 126.7V127.71H207.192V125.644H215.603L214.053 127.576V126.307C214.053 125.588 213.945 124.989 213.728 124.51C213.511 124.023 213.204 123.66 212.807 123.42C212.417 123.173 211.964 123.05 211.448 123.05C210.939 123.05 210.482 123.177 210.078 123.432C209.681 123.679 209.37 124.046 209.146 124.532C208.921 125.019 208.809 125.61 208.809 126.307V127.587C208.809 128.261 208.921 128.837 209.146 129.316C209.37 129.796 209.688 130.162 210.1 130.417C210.519 130.672 211.017 130.799 211.594 130.799C212.058 130.799 212.455 130.731 212.784 130.597C213.114 130.454 213.383 130.278 213.593 130.069C213.803 129.859 213.945 129.653 214.02 129.451L214.042 129.384H217.063L217.041 129.507C216.943 129.927 216.764 130.357 216.502 130.799C216.247 131.241 215.895 131.649 215.446 132.023C215.004 132.39 214.458 132.686 213.806 132.91C213.162 133.135 212.402 133.247 211.526 133.247Z" fill="white" fill-opacity="0.5"/>
<path d="M174.5 3L181.377 16.0345L195.899 18.5471L185.627 29.1155L187.725 43.7029L174.5 37.2L161.275 43.7029L163.373 29.1155L153.101 18.5471L167.623 16.0345L174.5 3Z" fill="#FACC15"/>
<path d="M129.5 11L136.377 24.0345L150.899 26.5471L140.627 37.1155L142.725 51.7029L129.5 45.2L116.275 51.7029L118.373 37.1155L108.101 26.5471L122.623 24.0345L129.5 11Z" fill="#FACC15"/>
<path d="M89.5 28L94.8488 38.1379L106.143 40.0922L98.1546 48.3121L99.7862 59.6578L89.5 54.6L79.2138 59.6578L80.8454 48.3121L72.8565 40.0922L84.1512 38.1379L89.5 28Z" fill="#FACC15"/>
<path d="M259.5 28L264.849 38.1379L276.143 40.0922L268.155 48.3121L269.786 59.6578L259.5 54.6L249.214 59.6578L250.845 48.3121L242.857 40.0922L254.151 38.1379L259.5 28Z" fill="#FACC15"/>
<path d="M219.5 11L226.377 24.0345L240.899 26.5471L230.627 37.1155L232.725 51.7029L219.5 45.2L206.275 51.7029L208.373 37.1155L198.101 26.5471L212.623 24.0345L219.5 11Z" fill="#FACC15"/>
</svg>
